<svg xmlns="http://www.w3.org/2000/svg" width="1145.7" height="817.62" viewBox="0 0 1145.7 817.62"><g transform="translate(-387 -128)"><path d="M1172.85,495.29A268.06,268.06,0,0,1,862.36,759.81H437.65a364.061,364.061,0,0,1-49.5,3.38c-161.35,0-298-105.86-344.22-251.91A360.768,360.768,0,0,1,27.15,402.19c0-199.38,161.63-361,361-361C548.72,41.19,684.78,146,731.67,291A266.84,266.84,0,0,1,905,227.39C1052.91,227.39,1172.85,347.33,1172.85,495.29Z" transform="translate(359.85 86.81)" fill="#6c63ff" opacity="0.1"/><path d="M1069.94,706.36a268.31,268.31,0,0,1-207.58,53.45H437.65a364.061,364.061,0,0,1-49.5,3.38c-161.35,0-298-105.86-344.22-251.91C78.5,437.39,167.34,384.81,271.5,384.81c101.5,0,188.45,49.94,224.81,120.87a301.814,301.814,0,0,1,54.19-4.87c105.2,0,194.77,53.65,228.59,128.71a295.63,295.63,0,0,1,86.41-12.71C951.3,616.81,1026.71,652.49,1069.94,706.36Z" transform="translate(359.85 86.81)" fill="#6c63ff" opacity="0.1"/><rect width="474" height="37" transform="translate(662.35 445.62)" fill="#fff"/><rect width="474" height="37" transform="translate(662.35 525.62)" fill="#fff"/><rect width="474" height="37" transform="translate(662.35 605.62)" fill="#fff"/><path d="M872.12,374.39l-2.52,2.52,8.1,8.1,18-18-2.52-2.52L877.7,379.88Zm21.78,3.42A14.34,14.34,0,1,1,883.46,364l2.79-2.79a16.74,16.74,0,0,0-6.75-1.35,18,18,0,1,0,18,18Z" transform="translate(359.85 86.81)" fill="#3acc6c"/><path d="M872.12,454.39l-2.52,2.52,8.1,8.1,18-18-2.52-2.52L877.7,459.88Zm21.78,3.42A14.34,14.34,0,1,1,883.46,444l2.79-2.79a16.74,16.74,0,0,0-6.75-1.35,18,18,0,1,0,18,18Z" transform="translate(359.85 86.81)" fill="#3acc6c"/><ellipse cx="510" cy="25.5" rx="510" ry="25.5" transform="translate(450.35 894.62)" fill="#6c63ff" opacity="0.1"/><path d="M935.52,290.66a7.54,7.54,0,0,1-1.36-4.2c0-9.11,18.58-16.5,41.5-16.5s41.5,7.39,41.5,16.5a7.82,7.82,0,0,1-1.72,4.69c25.52,2.84,42.72,8.18,42.72,14.31,0,9.11-38.06,16.5-85,16.5s-85-7.39-85-16.5C888.16,299,907.46,293.36,935.52,290.66Z" transform="translate(359.85 86.81)" fill="#6c63ff" opacity="0.1"/><path d="M332.77,180.25a7.49,7.49,0,0,1-2.24-3.8c-2-8.9,14.54-20.15,36.91-25.13s42.12-1.82,44.1,7.08a7.84,7.84,0,0,1-.65,4.95c25.52-2.77,43.47-1.3,44.8,4.68,2,8.89-33.56,24.38-79.38,34.58s-84.57,11.28-86.55,2.38C288.35,198.66,306,189,332.77,180.25Z" transform="translate(359.85 86.81)" fill="#6c63ff" opacity="0.1"/><path d="M231.73,171.81c-2.33-1.35-5.48-.06-7.08,2.11s-2.05,5-2.45,7.63c-.89,5.91-1.54,12.7,2.45,17.16-6.52-19.77-25.27-34.92-46-37.13" transform="translate(359.85 86.81)" fill="none" stroke="#6c63ff" stroke-miterlimit="10" stroke-width="3" opacity="0.1"/><path d="M434.76,265.06c-1.5-.87-3.52,0-4.55,1.36a10.83,10.83,0,0,0-1.58,4.9c-.57,3.81-1,8.17,1.58,11a35.86,35.86,0,0,0-29.55-23.87" transform="translate(359.85 86.81)" fill="none" stroke="#6c63ff" stroke-miterlimit="10" stroke-width="3" opacity="0.1"/><path d="M765.26,205.78c-1.5-.86-3.52,0-4.55,1.36a10.83,10.83,0,0,0-1.58,4.91c-.57,3.8-1,8.16,1.58,11a35.88,35.88,0,0,0-29.55-23.87" transform="translate(359.85 86.81)" fill="none" stroke="#6c63ff" stroke-miterlimit="10" stroke-width="3" opacity="0.1"/><path d="M231.65,808.24a37,37,0,0,1-.8,7.76c-.1.48-.21,1-.32,1.41-2.84,11.39-10.85,19.72-20.41,20.25h-1c-10.11,0-18.66-8.72-21.48-20.73-.08-.32-.15-.64-.22-1a37,37,0,0,1-.8-7.76c0-16.27,10.07-29.45,22.5-29.45S231.65,792,231.65,808.24Z" transform="translate(359.85 86.81)" fill="#3f3d56"/><path d="M231.65,808.24a37,37,0,0,1-.8,7.76c-.1.48-.21,1-.32,1.41h-1a45.754,45.754,0,0,1-7.36-1,44.925,44.925,0,0,1-6.56,1.5,45.867,45.867,0,0,1-5.14.48h-1.74a46.428,46.428,0,0,1-6.164-.411,45.17,45.17,0,0,1-9.666-2.4,45.568,45.568,0,0,1-5.22,1.4c-.08-.32-.15-.64-.22-1a37,37,0,0,1-.8-7.76c0-16.27,10.07-29.45,22.5-29.45S231.65,792,231.65,808.24Z" transform="translate(359.85 86.81)" opacity="0.1"/><path d="M279.65,753.38a45.54,45.54,0,0,0-4.9-20.61L248.29,741l23.23-13.66a45.73,45.73,0,0,0-34.36-19.58,45.652,45.652,0,0,0-3.57-4.72l-38,11.83,31.17-18.33a45.73,45.73,0,0,0-72,24.39l32.55,37.47L152,732.86a45.74,45.74,0,0,0,40.93,80.7,45.92,45.92,0,0,0,29.28.81,45.78,45.78,0,0,0,55.62-44.66c0-1,0-2-.1-3a45.63,45.63,0,0,0,1.92-13.33Z" transform="translate(359.85 86.81)" fill="#6c63ff"/><path d="M278.86,761.86a121.9,121.9,0,0,0-42.34-.54c-15.89,2.63-32.13,8.41-47.67,4.19-9.12-2.48-17-8.22-25.91-11.41a49.181,49.181,0,0,0-26.75-1.6,45.76,45.76,0,0,0,56.69,61.06,45.92,45.92,0,0,0,29.28.81,45.78,45.78,0,0,0,55.62-44.66c0-1,0-2-.1-3A45.174,45.174,0,0,0,278.86,761.86Z" transform="translate(359.85 86.81)" opacity="0.1"/><path d="M1041,758.09l40.78-24a98.351,98.351,0,0,0-20.85-25l-76.93,24,60.28-35.44a98,98,0,0,0-145.08,86c0,54.12,43.88,56,98,56s98-1.88,98-56a97.65,97.65,0,0,0-8.41-39.76Z" transform="translate(359.85 86.81)" fill="#6c63ff"/><path d="M1051.33,810.7c-4.16-4.51-9.33-8-14.45-11.35-7.41-4.91-15.07-9.93-23.79-11.6-7.67-1.47-15.58-.23-23.37-.68a54.62,54.62,0,0,1-35.81-16.41c-5.57-5.76-9.95-12.83-16.65-17.23-7.22-4.74-16.38-5.76-24.94-4.58a66.086,66.086,0,0,0-7.38,1.51,97.731,97.731,0,0,0-5.79,33.25c0,54.12,43.88,56,98,56,26.26,0,50.11-.44,67.71-7.08l-2.94-5.5C1058.86,821.29,1055.74,815.49,1051.33,810.7Z" transform="translate(359.85 86.81)" opacity="0.1"/><path d="M610.12,646.39l-2.52,2.52,8.1,8.1,18-18-2.52-2.52L615.7,651.88Zm21.78,3.42A14.34,14.34,0,1,1,621.46,636l2.79-2.79a16.739,16.739,0,0,0-6.75-1.35,18,18,0,1,0,18,18Z" transform="translate(621.85 -25.19)" fill="#3acc6c"/></g></svg>