<?xml version="1.0" encoding="UTF-8" standalone="no"?>
<svg
   xmlns:dc="http://purl.org/dc/elements/1.1/"
   xmlns:cc="http://creativecommons.org/ns#"
   xmlns:rdf="http://www.w3.org/1999/02/22-rdf-syntax-ns#"
   xmlns:svg="http://www.w3.org/2000/svg"
   xmlns="http://www.w3.org/2000/svg"
   xmlns:xlink="http://www.w3.org/1999/xlink"
   xmlns:sodipodi="http://sodipodi.sourceforge.net/DTD/sodipodi-0.dtd"
   xmlns:inkscape="http://www.inkscape.org/namespaces/inkscape"
   version="1.1"
   preserveAspectRatio="xMidYMid meet"
   viewBox="0 0 1076 430"
   width="1076"
   height="430"
   id="svg332"
   sodipodi:docname="page_not_found.svg"
   inkscape:version="1.0.1 (3bc2e813f5, 2020-09-07)">
  <metadata
     id="metadata336">
    <rdf:RDF>
      <cc:Work
         rdf:about="">
        <dc:format>image/svg+xml</dc:format>
        <dc:type
           rdf:resource="http://purl.org/dc/dcmitype/StillImage" />
        <dc:title></dc:title>
        <dc:title></dc:title>
      </cc:Work>
    </rdf:RDF>
  </metadata>
  <sodipodi:namedview
     pagecolor="#ffffff"
     bordercolor="#666666"
     borderopacity="1"
     objecttolerance="10"
     gridtolerance="10"
     guidetolerance="10"
     inkscape:pageopacity="0"
     inkscape:pageshadow="2"
     inkscape:window-width="1353"
     inkscape:window-height="906"
     id="namedview334"
     showgrid="false"
     inkscape:zoom="1.0297398"
     inkscape:cx="538"
     inkscape:cy="300"
     inkscape:window-x="527"
     inkscape:window-y="52"
     inkscape:window-maximized="0"
     inkscape:current-layer="svg332"
     inkscape:snap-bbox="false"
     inkscape:snap-global="true"
     inkscape:bbox-nodes="false"
     inkscape:snap-bbox-edge-midpoints="false" />
  <defs
     id="defs38">
    <path
       d="m 1067.74,549.09 c 0,19.28 -236.08,34.91 -527.29,34.91 -291.22,0 -527.3,-15.63 -527.3,-34.91 0,-19.28 236.08,-34.91 527.3,-34.91 291.21,0 527.29,15.63 527.29,34.91 z"
       id="hyLNNxPjB" />
    <path
       d="m 372.64,350.67 c 0,145.75 61.69,184.34 147.6,184.34 85.91,0 151.26,-42.26 151.26,-184.34 0,-151.88 -65.35,-183.73 -151.26,-183.73 -85.91,0 -147.6,55.12 -147.6,183.73 z m 57.57,0.09 c 0,-89.07 32.36,-136.05 91.86,-136.05 59.51,0 91.87,30.86 91.87,136.05 0,98.41 -33.64,135.87 -93.14,135.87 -59.5,0 -90.59,-34.91 -90.59,-135.87 z"
       id="a4mXqY4a4p" />
    <path
       d="m 285.68,433.35 c 0,-62.76 0,-97.63 0,-104.6 0,-11.57 -9.38,-20.95 -20.95,-20.95 -0.83,0 -7.49,0 -8.32,0 -11.57,0 -20.95,9.38 -20.95,20.95 0,0 0,0 0,0 0,6.97 0,41.84 0,104.6 -60.11,0 -93.51,0 -100.19,0 -6.6,0 -11.96,-5.36 -11.96,-11.96 0,-1.95 0.48,-3.87 1.39,-5.59 10.6,-20.07 95.43,-180.63 106.04,-200.7 5.4,-10.23 1.49,-22.9 -8.74,-28.31 -0.27,-0.14 -0.55,-0.28 -0.84,-0.42 -0.62,-0.29 -5.63,-2.66 -6.26,-2.95 -10.09,-4.77 -22.15,-0.78 -27.42,9.06 -12.93,24.2 -116.39,217.75 -129.33,241.94 -2.2,4.12 -3.35,8.72 -3.35,13.39 0,0 0,0 0,0 0,15.69 12.72,28.4 28.4,28.4 0,0 0,0 0,0 10.15,0 60.91,0 152.26,0 0,39.69 0,61.74 0,66.15 0,13.86 11.24,25.1 25.11,25.1 0,0 0,0 0,0 0,0 0,0 0,0 13.87,0 25.11,-11.24 25.11,-25.1 0,0 0,0 0,0 0,-4.41 0,-26.46 0,-66.15 21.31,0 33.15,0 35.52,0 11.84,0 21.44,-9.59 21.44,-21.43 0,0 0,0 0,0 0,0 0,0 0,0 0,-11.84 -9.6,-21.43 -21.44,-21.43 0,0 -11.84,0 -35.52,0 z"
       id="b8pQHLGVV" />
    <path
       d="m 943.42,433.35 c 0,-62.76 0,-97.63 0,-104.6 0,-11.57 -9.38,-20.95 -20.95,-20.95 -0.83,0 -7.49,0 -8.32,0 -11.57,0 -20.95,9.38 -20.95,20.95 0,0 0,0 0,0 0,6.97 0,41.84 0,104.6 -60.12,0 -93.51,0 -100.19,0 -6.61,0 -11.96,-5.36 -11.96,-11.96 0,-1.95 0.48,-3.87 1.38,-5.59 10.61,-20.07 95.44,-180.63 106.05,-200.7 5.4,-10.23 1.49,-22.9 -8.74,-28.31 -0.28,-0.14 -0.56,-0.28 -0.84,-0.42 -0.63,-0.29 -5.64,-2.66 -6.26,-2.95 -10.1,-4.77 -22.16,-0.78 -27.42,9.06 -12.93,24.2 -116.4,217.75 -129.33,241.94 -2.2,4.12 -3.35,8.72 -3.35,13.39 0,0 0,0 0,0 0,15.69 12.71,28.4 28.4,28.4 0,0 0,0 0,0 10.15,0 60.9,0 152.26,0 0,39.69 0,61.74 0,66.15 0,13.86 11.24,25.1 25.11,25.1 0,0 0,0 0,0 0,0 0,0 0,0 13.86,0 25.11,-11.24 25.11,-25.1 0,0 0,0 0,0 0,-4.41 0,-26.46 0,-66.15 21.31,0 33.15,0 35.52,0 11.83,0 21.43,-9.59 21.43,-21.43 0,0 0,0 0,0 0,0 0,0 0,0 0,-11.84 -9.6,-21.43 -21.43,-21.43 0,0 -11.84,0 -35.52,0 z"
       id="b3bYscFUEh" />
    <path
       d="m 295.48,421.1 c 0,-62.76 0,-97.63 0,-104.6 0,-11.57 -9.38,-20.95 -20.95,-20.95 0,0 0,0 0,0 -0.83,0 -7.49,0 -8.32,0 -11.57,0 -20.95,9.38 -20.95,20.95 0,0 0,0 0,0 0,6.97 0,41.84 0,104.6 -60.11,0 -93.51,0 -100.19,0 -6.6,0 -11.96,-5.36 -11.96,-11.96 0,-1.95 0.48,-3.87 1.39,-5.59 10.6,-20.07 95.43,-180.63 106.04,-200.7 5.4,-10.23 1.49,-22.9 -8.74,-28.31 -0.28,-0.14 -0.56,-0.28 -0.84,-0.42 -0.63,-0.29 -5.63,-2.66 -6.26,-2.95 -10.09,-4.77 -22.15,-0.78 -27.42,9.06 -12.93,24.2 -116.39,217.75 -129.33,241.94 -2.2,4.12 -3.35,8.72 -3.35,13.39 0,0 0,0 0,0 0,15.69 12.71,28.41 28.4,28.41 0,0 0,0 0,0 10.15,0 60.91,0 152.26,0 0,39.68 0,61.73 0,66.14 0,13.86 11.24,25.11 25.11,25.11 0,0 0,0 0,0 0,0 0,0 0,0 13.87,0 25.11,-11.25 25.11,-25.11 0,0 0,0 0,0 0,-4.41 0,-26.46 0,-66.14 21.31,0 33.15,0 35.52,0 11.84,0 21.43,-9.6 21.43,-21.44 0,0 0,0 0,0 0,0 0,0 0,0 0,-11.84 -9.59,-21.43 -21.43,-21.43 0,0 0,0 0,0 0,0 -11.84,0 -35.52,0 z"
       id="g5DSoOO5jI" />
    <path
       d="m 961.79,421.1 c 0,-62.76 0,-97.63 0,-104.6 0,-11.57 -9.38,-20.95 -20.95,-20.95 0,0 0,0 0,0 -0.83,0 -7.49,0 -8.32,0 -11.57,0 -20.95,9.38 -20.95,20.95 0,0 0,0 0,0 0,6.97 0,41.84 0,104.6 -60.11,0 -93.51,0 -100.19,0 -6.6,0 -11.96,-5.36 -11.96,-11.96 0,-1.95 0.48,-3.87 1.39,-5.59 10.6,-20.07 95.43,-180.63 106.04,-200.7 5.4,-10.23 1.49,-22.9 -8.74,-28.31 -0.28,-0.14 -0.56,-0.28 -0.84,-0.42 -0.62,-0.29 -5.63,-2.66 -6.26,-2.95 -10.09,-4.77 -22.15,-0.78 -27.42,9.06 -12.93,24.2 -116.39,217.75 -129.33,241.94 -2.2,4.12 -3.35,8.72 -3.35,13.39 0,0 0,0 0,0 0,15.69 12.72,28.41 28.4,28.41 0,0 0,0 0,0 10.15,0 60.91,0 152.26,0 0,39.68 0,61.73 0,66.14 0,13.86 11.24,25.11 25.11,25.11 0,0 0,0 0,0 0,0 0,0 0,0 13.87,0 25.11,-11.25 25.11,-25.11 0,-4.41 0,-26.46 0,-66.14 21.31,0 33.15,0 35.52,0 11.84,0 21.43,-9.6 21.43,-21.44 0,0 0,0 0,0 0,0 0,0 0,0 0,-11.84 -9.59,-21.43 -21.43,-21.43 0,0 -11.84,0 -35.52,0 z"
       id="a2XZi10JVZ" />
    <path
       d="m 392.24,339.65 c 0,145.75 61.68,184.33 147.59,184.33 85.91,0 151.27,-42.25 151.27,-184.33 0,-151.88 -65.36,-183.73 -151.27,-183.73 -85.91,0 -147.59,55.12 -147.59,183.73 z m 57.57,0.09 c 0,-89.08 32.36,-136.05 91.86,-136.05 59.5,0 91.86,30.85 91.86,136.05 0,98.41 -33.63,135.86 -93.13,135.86 -59.5,0 -90.59,-34.91 -90.59,-135.86 z"
       id="c6VeAZOgT" />
    <path
       d="m 1033.14,406.94 c 3.93,-10.8 -1.64,-22.74 -12.44,-26.66 -3.67,-1.33 -7.63,-1.61 -11.45,-0.8 0.04,0.72 0.21,4.29 0.52,10.71 -3.04,-5.5 -4.73,-8.56 -5.06,-9.17 -4.97,2.33 -8.82,6.55 -10.68,11.71 -0.66,1.81 -1.07,3.71 -1.2,5.63 -0.66,9.27 4.92,17.85 13.65,21.02 10.8,3.93 22.74,-1.64 26.66,-12.44 z"
       id="c1RoU6X51Q" />
    <path
       d="m 1031.55,543.58 c -1.79,-9.11 5.96,-17.18 13.62,-22.43 7.65,-5.25 16.59,-10.4 19.21,-19.31 3.75,-12.8 -7.43,-24.52 -16.13,-34.63 -6.46,-7.5 -12,-15.74 -16.52,-24.54 -1.81,-3.54 -3.48,-7.23 -3.95,-11.17 -0.69,-5.67 1.13,-11.31 2.97,-16.73 6.12,-18.02 12.66,-35.9 19.62,-53.63"
       id="c1zPYORn8t" />
    <path
       d="m 1034,404.18 c 3.92,-10.8 -1.65,-22.73 -12.45,-26.66 -3.66,-1.33 -7.63,-1.61 -11.44,-0.79 0.03,0.71 0.21,4.28 0.52,10.71 -3.04,-5.51 -4.73,-8.57 -5.07,-9.18 -4.97,2.33 -8.81,6.55 -10.68,11.72 -0.66,1.81 -1.06,3.7 -1.19,5.62 -0.66,9.27 4.91,17.86 13.65,21.03 10.8,3.92 22.73,-1.65 26.66,-12.45 z"
       id="c2JbhPlPGg" />
    <path
       d="m 1043.98,344.25 c 0.11,0.68 0.69,4.08 1.71,10.18 1.91,-6.41 2.97,-9.97 3.18,-10.69 11.49,0.17 20.66,9.62 20.49,21.11 -0.17,11.49 -9.62,20.66 -21.11,20.49 -11.48,-0.17 -20.66,-9.62 -20.49,-21.11 0.04,-2.31 0.46,-4.61 1.25,-6.78 2.41,-6.67 8.06,-11.64 14.97,-13.2 z"
       id="g6f9xR9CXQ" />
    <path
       d="m 1045.12,340.58 c 0.12,0.68 0.69,4.07 1.72,10.18 1.9,-6.42 2.96,-9.98 3.17,-10.69 11.49,0.17 20.66,9.62 20.49,21.1 -0.17,11.49 -9.62,20.67 -21.11,20.5 -11.48,-0.17 -20.66,-9.62 -20.49,-21.11 0.04,-2.32 0.46,-4.61 1.25,-6.79 2.41,-6.66 8.06,-11.64 14.97,-13.19 z"
       id="eNluhnSp" />
    <path
       d="m 1071.24,454.96 c 3.3,-9.1 -0.11,-19.28 -8.23,-24.55 -0.17,0.55 -0.98,3.29 -2.44,8.22 -1.04,-6.18 -1.62,-9.62 -1.73,-10.3 -0.02,-0.01 -0.04,-0.02 -0.06,-0.02 -10.8,-3.93 -22.73,1.65 -26.66,12.44 -3.92,10.8 1.65,22.74 12.45,26.66 0.01,0 0.02,0.01 0.02,0.01 10.8,3.92 22.73,-1.66 26.65,-12.46 z"
       id="a14PAf440u" />
    <path
       d="m 1072.23,451.23 c 3.3,-9.1 -0.11,-19.27 -8.23,-24.54 -0.17,0.55 -0.98,3.28 -2.44,8.21 -1.04,-6.18 -1.62,-9.61 -1.74,-10.3 -0.01,0 -0.03,-0.01 -0.05,-0.02 -10.8,-3.92 -22.73,1.65 -26.66,12.45 -3.92,10.8 1.65,22.73 12.45,26.66 0.01,0 0.02,0 0.02,0.01 10.8,3.91 22.73,-1.67 26.65,-12.47 z"
       id="anaNeL1xb" />
    <path
       d="m 1047.01,518.85 c 11.31,-1.99 18.87,-12.77 16.88,-24.08 -1.98,-11.31 -12.76,-18.87 -24.07,-16.88 -5.12,0.9 -9.71,3.68 -12.88,7.79 0.62,0.93 3.71,5.58 9.27,13.95 -7.6,-4.44 -11.82,-6.91 -12.66,-7.41 -0.98,3.16 -1.19,6.5 -0.61,9.75 1.98,11.31 12.76,18.87 24.07,16.88 z"
       id="acazL4xDk" />
    <path
       d="m 1047.87,516.09 c 11.31,-1.99 18.87,-12.77 16.88,-24.08 -1.99,-11.31 -12.77,-18.86 -24.08,-16.88 -5.11,0.9 -9.7,3.68 -12.87,7.79 0.62,0.93 3.71,5.58 9.27,13.95 -7.6,-4.44 -11.82,-6.91 -12.66,-7.4 -0.99,3.15 -1.2,6.49 -0.62,9.74 1.99,11.31 12.77,18.87 24.08,16.88 z"
       id="dM5jM8yW" />
    <path
       d="m 26.54,461.89 c 2.58,-7.1 -1.08,-14.94 -8.18,-17.52 -2.41,-0.88 -5.01,-1.06 -7.52,-0.52 0.02,0.47 0.14,2.81 0.34,7.03 -1.99,-3.61 -3.1,-5.62 -3.33,-6.03 -3.26,1.54 -5.79,4.31 -7.01,7.7 -0.44,1.19 -0.7,2.44 -0.79,3.7 -0.43,6.09 3.23,11.73 8.97,13.81 7.1,2.58 14.94,-1.08 17.52,-8.17 z"
       id="c5xfRPijW7" />
    <path
       d="m 25.49,551.66 c -1.17,-5.98 3.92,-11.29 8.95,-14.73 5.02,-3.45 10.9,-6.84 12.62,-12.69 2.46,-8.41 -4.88,-16.11 -10.6,-22.75 -4.24,-4.93 -7.88,-10.34 -10.85,-16.13 -1.29,-2.27 -2.17,-4.76 -2.6,-7.33 -0.45,-3.73 0.75,-7.44 1.96,-11 4.01,-11.84 8.31,-23.59 12.89,-35.23"
       id="a1vlNmJztR" />
    <path
       d="m 27.1,460.08 c 2.58,-7.1 -1.08,-14.94 -8.18,-17.52 -2.4,-0.88 -5.01,-1.06 -7.52,-0.52 0.03,0.47 0.14,2.81 0.35,7.03 -2,-3.62 -3.11,-5.63 -3.33,-6.03 -3.27,1.54 -5.79,4.31 -7.02,7.7 -0.43,1.19 -0.7,2.44 -0.79,3.7 -0.43,6.09 3.23,11.73 8.97,13.81 7.1,2.58 14.94,-1.08 17.52,-8.17 z"
       id="epp6sWkG" />
    <path
       d="m 33.66,420.7 c 0.07,0.45 0.45,2.68 1.12,6.69 1.25,-4.21 1.95,-6.56 2.09,-7.02 7.55,0.11 13.57,6.32 13.46,13.86 -0.11,7.55 -6.32,13.58 -13.87,13.47 -7.54,-0.12 -13.57,-6.32 -13.46,-13.87 0.02,-1.52 0.3,-3.03 0.82,-4.46 1.59,-4.38 5.29,-7.65 9.84,-8.67 z"
       id="c7GaHPYuP" />
    <path
       d="m 34.41,418.29 c 0.07,0.44 0.45,2.67 1.12,6.68 1.26,-4.21 1.95,-6.55 2.09,-7.02 7.55,0.11 13.57,6.32 13.46,13.87 -0.11,7.55 -6.32,13.57 -13.87,13.46 -7.54,-0.11 -13.57,-6.32 -13.46,-13.87 0.02,-1.52 0.3,-3.03 0.82,-4.46 1.59,-4.37 5.3,-7.64 9.84,-8.66 z"
       id="i1zwKvIeK" />
    <path
       d="m 51.57,493.44 c 2.17,-5.98 -0.08,-12.67 -5.41,-16.13 -0.11,0.36 -0.64,2.16 -1.61,5.4 -0.68,-4.06 -1.06,-6.32 -1.13,-6.77 -0.01,-0.01 -0.03,-0.01 -0.04,-0.01 -7.09,-2.58 -14.93,1.08 -17.51,8.17 -2.58,7.09 1.08,14.94 8.17,17.52 0.01,0 0.01,0 0.02,0 7.1,2.58 14.94,-1.09 17.51,-8.18 z"
       id="j2dKDjxIsB" />
    <path
       d="m 52.22,490.99 c 2.17,-5.98 -0.07,-12.67 -5.41,-16.13 -0.11,0.36 -0.64,2.16 -1.61,5.4 -0.68,-4.06 -1.06,-6.32 -1.13,-6.77 -0.01,0 -0.03,-0.01 -0.04,-0.01 -7.09,-2.57 -14.93,1.09 -17.51,8.19 -2.57,7.09 1.09,14.93 8.19,17.51 0,0 0,0 0,0 7.1,2.57 14.94,-1.09 17.51,-8.19 z"
       id="a16vlN8JRR" />
    <path
       d="m 35.65,535.41 c 7.43,-1.3 12.4,-8.39 11.09,-15.82 -1.3,-7.43 -8.39,-12.39 -15.82,-11.09 -3.36,0.59 -6.37,2.42 -8.46,5.12 0.41,0.61 2.44,3.67 6.09,9.17 -4.99,-2.92 -7.76,-4.55 -8.32,-4.87 -0.64,2.07 -0.78,4.27 -0.4,6.4 1.31,7.43 8.39,12.4 15.82,11.09 z"
       id="h7Qi4A47r9" />
    <path
       d="m 36.21,533.6 c 7.43,-1.3 12.4,-8.39 11.09,-15.82 -1.3,-7.43 -8.38,-12.39 -15.82,-11.09 -3.35,0.59 -6.37,2.42 -8.45,5.12 0.4,0.61 2.43,3.66 6.09,9.16 -5,-2.92 -7.77,-4.54 -8.32,-4.86 -0.65,2.07 -0.79,4.27 -0.41,6.4 1.31,7.43 8.39,12.4 15.82,11.09 z"
       id="c37Bs6tPiJ" />
    <path
       d="m 497.77,318.99 c 0,12.14 -7.61,21.99 -17,21.99 -9.38,0 -16.99,-9.85 -16.99,-21.99 0,-12.15 7.61,-21.99 16.99,-21.99 9.39,0 17,9.84 17,21.99 z"
       id="aAno13uin" />
    <path
       d="m 590.23,319.49 c 0,12.14 -7.61,21.99 -16.99,21.99 -9.39,0 -17,-9.85 -17,-21.99 0,-12.15 7.61,-21.99 17,-21.99 9.38,0 16.99,9.84 16.99,21.99 z"
       id="e1RzcKqUtK" />
    <path
       d="m 529.25,402.46 c -17.11,0 -30.98,-8.06 -30.98,-18 0,-8.6 10.4,-15.8 24.31,-17.56 2.21,-0.29 4.44,-0.44 6.67,-0.43 3.74,-0.01 7.48,0.39 11.13,1.2 11.61,2.59 19.86,9.14 19.86,16.79 0,9.94 -13.87,18 -30.99,18 z"
       id="buYE34iGh" />
    <path
       d="m 501.76,313.99 c 0,12.15 -7.6,21.99 -16.99,21.99 -9.38,0 -16.99,-9.84 -16.99,-21.99 0,-12.14 7.61,-21.99 16.99,-21.99 9.39,0 16.99,9.85 16.99,21.99 z"
       id="h157EesJd6" />
    <path
       d="m 594.23,314.49 c 0,12.15 -7.61,21.99 -17,21.99 -9.38,0 -16.99,-9.84 -16.99,-21.99 0,-12.14 7.61,-21.99 16.99,-21.99 9.39,0 17,9.85 17,21.99 z"
       id="ehKEqdNW" />
    <path
       d="m 564.24,379.47 c 0,9.93 -13.87,17.99 -30.99,17.99 -17.11,0 -30.99,-8.06 -30.99,-17.99 0,-9.94 13.88,-18 30.99,-18 17.12,0 30.99,8.06 30.99,18 z"
       id="hJDfTQZTX" />
    <path
       d="m 539.43,372.56 c -0.82,0.89 -1.97,1.4 -3.18,1.41 -1,0 -9,0 -10,0 -2.56,-0.09 -4.57,-2.24 -4.49,-4.8 -0.01,-0.98 0.28,-1.93 0.82,-2.74 2.21,-0.31 4.44,-0.47 6.67,-0.46 3.75,-0.01 7.48,0.42 11.13,1.28 0.25,0.61 0.37,1.26 0.37,1.92 0.01,1.26 -0.47,2.47 -1.32,3.39 z"
       id="d1owrzaEuP" />
    <path
       d="m 484.77,303 c -2.76,0 -5,2.23 -5,4.99 0,2.76 2.24,5 5,5 2.76,0 5,-2.24 5,-5 0,-2.76 -2.24,-4.99 -5,-4.99 z"
       id="b3Cn41DtGL" />
    <path
       d="m 577.73,303 c -2.76,0 -4.99,2.23 -4.99,4.99 0,2.76 2.23,5 4.99,5 2.76,0 5,-2.24 5,-5 0,-2.76 -2.24,-4.99 -5,-4.99 z"
       id="e4GlcNBch" />
    <path
       d="m 582.73,349.98 c -2.76,0 -5,2.23 -5,5 0,2.76 2.24,4.99 5,4.99 2.76,0 5,-2.23 5,-4.99 0,-2.77 -2.24,-5 -5,-5 z"
       id="bBOVLh0tD" />
    <path
       d="m 460.78,349.98 c -2.76,0 -5,2.23 -5,5 0,2.76 2.24,4.99 5,4.99 2.76,0 5,-2.23 5,-4.99 0,-2.77 -2.24,-5 -5,-5 z"
       id="a3ptwinnog" />
  </defs>
  <g
     id="g330"
     style="opacity:1"
     transform="translate(0,-155.42)">
    <g
       id="g328">
      <g
         id="g46">
        <use
           xlink:href="#hyLNNxPjB"
           opacity="1"
           fill="#f2f2f2"
           fill-opacity="1"
           id="use40"
           x="0"
           y="0"
           width="100%"
           height="100%" />
        <g
           id="g44">
          <use
             xlink:href="#hyLNNxPjB"
             opacity="1"
             fill-opacity="0"
             stroke="#000000"
             stroke-width="1"
             stroke-opacity="0"
             id="use42"
             x="0"
             y="0"
             width="100%"
             height="100%" />
        </g>
      </g>
      <g
         id="g54">
        <use
           xlink:href="#a4mXqY4a4p"
           opacity="1"
           fill="#2f2e41"
           fill-opacity="1"
           id="use48"
           x="0"
           y="0"
           width="100%"
           height="100%" />
        <g
           id="g52">
          <use
             xlink:href="#a4mXqY4a4p"
             opacity="1"
             fill-opacity="0"
             stroke="#000000"
             stroke-width="1"
             stroke-opacity="0"
             id="use50"
             x="0"
             y="0"
             width="100%"
             height="100%" />
        </g>
      </g>
      <g
         id="g62">
        <use
           xlink:href="#b8pQHLGVV"
           opacity="1"
           fill="#6c63ff"
           fill-opacity="1"
           id="use56"
           x="0"
           y="0"
           width="100%"
           height="100%" />
        <g
           id="g60">
          <use
             xlink:href="#b8pQHLGVV"
             opacity="1"
             fill-opacity="0"
             stroke="#000000"
             stroke-width="1"
             stroke-opacity="0"
             id="use58"
             x="0"
             y="0"
             width="100%"
             height="100%" />
        </g>
      </g>
      <g
         id="g70">
        <use
           xlink:href="#b3bYscFUEh"
           opacity="1"
           fill="#6c63ff"
           fill-opacity="1"
           id="use64"
           x="0"
           y="0"
           width="100%"
           height="100%" />
        <g
           id="g68">
          <use
             xlink:href="#b3bYscFUEh"
             opacity="1"
             fill-opacity="0"
             stroke="#000000"
             stroke-width="1"
             stroke-opacity="0"
             id="use66"
             x="0"
             y="0"
             width="100%"
             height="100%" />
        </g>
      </g>
      <g
         id="g78">
        <use
           xlink:href="#g5DSoOO5jI"
           opacity="1"
           fill="#000000"
           fill-opacity="0"
           id="use72"
           x="0"
           y="0"
           width="100%"
           height="100%" />
        <g
           id="g76">
          <use
             xlink:href="#g5DSoOO5jI"
             opacity="1"
             fill-opacity="0"
             stroke="#3f3d56"
             stroke-width="1"
             stroke-opacity="1"
             id="use74"
             x="0"
             y="0"
             width="100%"
             height="100%" />
        </g>
      </g>
      <g
         id="g86">
        <use
           xlink:href="#a2XZi10JVZ"
           opacity="1"
           fill="#000000"
           fill-opacity="0"
           id="use80"
           x="0"
           y="0"
           width="100%"
           height="100%" />
        <g
           id="g84">
          <use
             xlink:href="#a2XZi10JVZ"
             opacity="1"
             fill-opacity="0"
             stroke="#3f3d56"
             stroke-width="1"
             stroke-opacity="1"
             id="use82"
             x="0"
             y="0"
             width="100%"
             height="100%" />
        </g>
      </g>
      <g
         id="g94">
        <use
           xlink:href="#c6VeAZOgT"
           opacity="1"
           fill="#000000"
           fill-opacity="0"
           id="use88"
           x="0"
           y="0"
           width="100%"
           height="100%" />
        <g
           id="g92">
          <use
             xlink:href="#c6VeAZOgT"
             opacity="1"
             fill-opacity="0"
             stroke="#3f3d56"
             stroke-width="1"
             stroke-opacity="1"
             id="use90"
             x="0"
             y="0"
             width="100%"
             height="100%" />
        </g>
      </g>
      <g
         id="g102">
        <use
           xlink:href="#c1RoU6X51Q"
           opacity="1"
           fill="#57b894"
           fill-opacity="1"
           id="use96"
           x="0"
           y="0"
           width="100%"
           height="100%" />
        <g
           id="g100">
          <use
             xlink:href="#c1RoU6X51Q"
             opacity="1"
             fill-opacity="0"
             stroke="#000000"
             stroke-width="1"
             stroke-opacity="0"
             id="use98"
             x="0"
             y="0"
             width="100%"
             height="100%" />
        </g>
      </g>
      <g
         id="g110">
        <use
           xlink:href="#c1zPYORn8t"
           opacity="1"
           fill="#000000"
           fill-opacity="0"
           id="use104"
           x="0"
           y="0"
           width="100%"
           height="100%" />
        <g
           id="g108">
          <use
             xlink:href="#c1zPYORn8t"
             opacity="1"
             fill-opacity="0"
             stroke="#3f3d56"
             stroke-width="1"
             stroke-opacity="1"
             id="use106"
             x="0"
             y="0"
             width="100%"
             height="100%" />
        </g>
      </g>
      <g
         id="g118">
        <use
           xlink:href="#c2JbhPlPGg"
           opacity="1"
           fill="#000000"
           fill-opacity="0"
           id="use112"
           x="0"
           y="0"
           width="100%"
           height="100%" />
        <g
           id="g116">
          <use
             xlink:href="#c2JbhPlPGg"
             opacity="1"
             fill-opacity="0"
             stroke="#3f3d56"
             stroke-width="1"
             stroke-opacity="1"
             id="use114"
             x="0"
             y="0"
             width="100%"
             height="100%" />
        </g>
      </g>
      <g
         id="g126">
        <use
           xlink:href="#g6f9xR9CXQ"
           opacity="1"
           fill="#57b894"
           fill-opacity="1"
           id="use120"
           x="0"
           y="0"
           width="100%"
           height="100%" />
        <g
           id="g124">
          <use
             xlink:href="#g6f9xR9CXQ"
             opacity="1"
             fill-opacity="0"
             stroke="#000000"
             stroke-width="1"
             stroke-opacity="0"
             id="use122"
             x="0"
             y="0"
             width="100%"
             height="100%" />
        </g>
      </g>
      <g
         id="g134">
        <use
           xlink:href="#eNluhnSp"
           opacity="1"
           fill="#000000"
           fill-opacity="0"
           id="use128"
           x="0"
           y="0"
           width="100%"
           height="100%" />
        <g
           id="g132">
          <use
             xlink:href="#eNluhnSp"
             opacity="1"
             fill-opacity="0"
             stroke="#3f3d56"
             stroke-width="1"
             stroke-opacity="1"
             id="use130"
             x="0"
             y="0"
             width="100%"
             height="100%" />
        </g>
      </g>
      <g
         id="g142">
        <use
           xlink:href="#a14PAf440u"
           opacity="1"
           fill="#57b894"
           fill-opacity="1"
           id="use136"
           x="0"
           y="0"
           width="100%"
           height="100%" />
        <g
           id="g140">
          <use
             xlink:href="#a14PAf440u"
             opacity="1"
             fill-opacity="0"
             stroke="#000000"
             stroke-width="1"
             stroke-opacity="0"
             id="use138"
             x="0"
             y="0"
             width="100%"
             height="100%" />
        </g>
      </g>
      <g
         id="g150">
        <use
           xlink:href="#anaNeL1xb"
           opacity="1"
           fill="#000000"
           fill-opacity="0"
           id="use144"
           x="0"
           y="0"
           width="100%"
           height="100%" />
        <g
           id="g148">
          <use
             xlink:href="#anaNeL1xb"
             opacity="1"
             fill-opacity="0"
             stroke="#3f3d56"
             stroke-width="1"
             stroke-opacity="1"
             id="use146"
             x="0"
             y="0"
             width="100%"
             height="100%" />
        </g>
      </g>
      <g
         id="g158">
        <use
           xlink:href="#acazL4xDk"
           opacity="1"
           fill="#57b894"
           fill-opacity="1"
           id="use152"
           x="0"
           y="0"
           width="100%"
           height="100%" />
        <g
           id="g156">
          <use
             xlink:href="#acazL4xDk"
             opacity="1"
             fill-opacity="0"
             stroke="#000000"
             stroke-width="1"
             stroke-opacity="0"
             id="use154"
             x="0"
             y="0"
             width="100%"
             height="100%" />
        </g>
      </g>
      <g
         id="g166">
        <use
           xlink:href="#dM5jM8yW"
           opacity="1"
           fill="#000000"
           fill-opacity="0"
           id="use160"
           x="0"
           y="0"
           width="100%"
           height="100%" />
        <g
           id="g164">
          <use
             xlink:href="#dM5jM8yW"
             opacity="1"
             fill-opacity="0"
             stroke="#3f3d56"
             stroke-width="1"
             stroke-opacity="1"
             id="use162"
             x="0"
             y="0"
             width="100%"
             height="100%" />
        </g>
      </g>
      <g
         id="g174">
        <use
           xlink:href="#c5xfRPijW7"
           opacity="1"
           fill="#57b894"
           fill-opacity="1"
           id="use168"
           x="0"
           y="0"
           width="100%"
           height="100%" />
        <g
           id="g172">
          <use
             xlink:href="#c5xfRPijW7"
             opacity="1"
             fill-opacity="0"
             stroke="#000000"
             stroke-width="1"
             stroke-opacity="0"
             id="use170"
             x="0"
             y="0"
             width="100%"
             height="100%" />
        </g>
      </g>
      <g
         id="g182">
        <use
           xlink:href="#a1vlNmJztR"
           opacity="1"
           fill="#000000"
           fill-opacity="0"
           id="use176"
           x="0"
           y="0"
           width="100%"
           height="100%" />
        <g
           id="g180">
          <use
             xlink:href="#a1vlNmJztR"
             opacity="1"
             fill-opacity="0"
             stroke="#3f3d56"
             stroke-width="1"
             stroke-opacity="1"
             id="use178"
             x="0"
             y="0"
             width="100%"
             height="100%" />
        </g>
      </g>
      <g
         id="g190">
        <use
           xlink:href="#epp6sWkG"
           opacity="1"
           fill="#000000"
           fill-opacity="0"
           id="use184"
           x="0"
           y="0"
           width="100%"
           height="100%" />
        <g
           id="g188">
          <use
             xlink:href="#epp6sWkG"
             opacity="1"
             fill-opacity="0"
             stroke="#3f3d56"
             stroke-width="1"
             stroke-opacity="1"
             id="use186"
             x="0"
             y="0"
             width="100%"
             height="100%" />
        </g>
      </g>
      <g
         id="g198">
        <use
           xlink:href="#c7GaHPYuP"
           opacity="1"
           fill="#57b894"
           fill-opacity="1"
           id="use192"
           x="0"
           y="0"
           width="100%"
           height="100%" />
        <g
           id="g196">
          <use
             xlink:href="#c7GaHPYuP"
             opacity="1"
             fill-opacity="0"
             stroke="#000000"
             stroke-width="1"
             stroke-opacity="0"
             id="use194"
             x="0"
             y="0"
             width="100%"
             height="100%" />
        </g>
      </g>
      <g
         id="g206">
        <use
           xlink:href="#i1zwKvIeK"
           opacity="1"
           fill="#000000"
           fill-opacity="0"
           id="use200"
           x="0"
           y="0"
           width="100%"
           height="100%" />
        <g
           id="g204">
          <use
             xlink:href="#i1zwKvIeK"
             opacity="1"
             fill-opacity="0"
             stroke="#3f3d56"
             stroke-width="1"
             stroke-opacity="1"
             id="use202"
             x="0"
             y="0"
             width="100%"
             height="100%" />
        </g>
      </g>
      <g
         id="g214">
        <use
           xlink:href="#j2dKDjxIsB"
           opacity="1"
           fill="#57b894"
           fill-opacity="1"
           id="use208"
           x="0"
           y="0"
           width="100%"
           height="100%" />
        <g
           id="g212">
          <use
             xlink:href="#j2dKDjxIsB"
             opacity="1"
             fill-opacity="0"
             stroke="#000000"
             stroke-width="1"
             stroke-opacity="0"
             id="use210"
             x="0"
             y="0"
             width="100%"
             height="100%" />
        </g>
      </g>
      <g
         id="g222">
        <use
           xlink:href="#a16vlN8JRR"
           opacity="1"
           fill="#000000"
           fill-opacity="0"
           id="use216"
           x="0"
           y="0"
           width="100%"
           height="100%" />
        <g
           id="g220">
          <use
             xlink:href="#a16vlN8JRR"
             opacity="1"
             fill-opacity="0"
             stroke="#3f3d56"
             stroke-width="1"
             stroke-opacity="1"
             id="use218"
             x="0"
             y="0"
             width="100%"
             height="100%" />
        </g>
      </g>
      <g
         id="g230">
        <use
           xlink:href="#h7Qi4A47r9"
           opacity="1"
           fill="#57b894"
           fill-opacity="1"
           id="use224"
           x="0"
           y="0"
           width="100%"
           height="100%" />
        <g
           id="g228">
          <use
             xlink:href="#h7Qi4A47r9"
             opacity="1"
             fill-opacity="0"
             stroke="#000000"
             stroke-width="1"
             stroke-opacity="0"
             id="use226"
             x="0"
             y="0"
             width="100%"
             height="100%" />
        </g>
      </g>
      <g
         id="g238">
        <use
           xlink:href="#c37Bs6tPiJ"
           opacity="1"
           fill="#000000"
           fill-opacity="0"
           id="use232"
           x="0"
           y="0"
           width="100%"
           height="100%" />
        <g
           id="g236">
          <use
             xlink:href="#c37Bs6tPiJ"
             opacity="1"
             fill-opacity="0"
             stroke="#3f3d56"
             stroke-width="1"
             stroke-opacity="1"
             id="use234"
             x="0"
             y="0"
             width="100%"
             height="100%" />
        </g>
      </g>
      <g
         id="g246">
        <use
           xlink:href="#aAno13uin"
           opacity="1"
           fill="#2f2e41"
           fill-opacity="1"
           id="use240"
           x="0"
           y="0"
           width="100%"
           height="100%" />
        <g
           id="g244">
          <use
             xlink:href="#aAno13uin"
             opacity="1"
             fill-opacity="0"
             stroke="#000000"
             stroke-width="1"
             stroke-opacity="0"
             id="use242"
             x="0"
             y="0"
             width="100%"
             height="100%" />
        </g>
      </g>
      <g
         id="g254">
        <use
           xlink:href="#e1RzcKqUtK"
           opacity="1"
           fill="#2f2e41"
           fill-opacity="1"
           id="use248"
           x="0"
           y="0"
           width="100%"
           height="100%" />
        <g
           id="g252">
          <use
             xlink:href="#e1RzcKqUtK"
             opacity="1"
             fill-opacity="0"
             stroke="#000000"
             stroke-width="1"
             stroke-opacity="0"
             id="use250"
             x="0"
             y="0"
             width="100%"
             height="100%" />
        </g>
      </g>
      <g
         id="g262">
        <use
           xlink:href="#buYE34iGh"
           opacity="1"
           fill="#2f2e41"
           fill-opacity="1"
           id="use256"
           x="0"
           y="0"
           width="100%"
           height="100%" />
        <g
           id="g260">
          <use
             xlink:href="#buYE34iGh"
             opacity="1"
             fill-opacity="0"
             stroke="#000000"
             stroke-width="1"
             stroke-opacity="0"
             id="use258"
             x="0"
             y="0"
             width="100%"
             height="100%" />
        </g>
      </g>
      <g
         id="g270">
        <use
           xlink:href="#h157EesJd6"
           opacity="1"
           fill="#000000"
           fill-opacity="0"
           id="use264"
           x="0"
           y="0"
           width="100%"
           height="100%" />
        <g
           id="g268">
          <use
             xlink:href="#h157EesJd6"
             opacity="1"
             fill-opacity="0"
             stroke="#3f3d56"
             stroke-width="1"
             stroke-opacity="1"
             id="use266"
             x="0"
             y="0"
             width="100%"
             height="100%" />
        </g>
      </g>
      <g
         id="g278">
        <use
           xlink:href="#ehKEqdNW"
           opacity="1"
           fill="#000000"
           fill-opacity="0"
           id="use272"
           x="0"
           y="0"
           width="100%"
           height="100%" />
        <g
           id="g276">
          <use
             xlink:href="#ehKEqdNW"
             opacity="1"
             fill-opacity="0"
             stroke="#3f3d56"
             stroke-width="1"
             stroke-opacity="1"
             id="use274"
             x="0"
             y="0"
             width="100%"
             height="100%" />
        </g>
      </g>
      <g
         id="g286">
        <use
           xlink:href="#hJDfTQZTX"
           opacity="1"
           fill="#000000"
           fill-opacity="0"
           id="use280"
           x="0"
           y="0"
           width="100%"
           height="100%" />
        <g
           id="g284">
          <use
             xlink:href="#hJDfTQZTX"
             opacity="1"
             fill-opacity="0"
             stroke="#3f3d56"
             stroke-width="1"
             stroke-opacity="1"
             id="use282"
             x="0"
             y="0"
             width="100%"
             height="100%" />
        </g>
      </g>
      <g
         id="g294">
        <use
           xlink:href="#d1owrzaEuP"
           opacity="1"
           fill="#ffffff"
           fill-opacity="1"
           id="use288"
           x="0"
           y="0"
           width="100%"
           height="100%" />
        <g
           id="g292">
          <use
             xlink:href="#d1owrzaEuP"
             opacity="1"
             fill-opacity="0"
             stroke="#000000"
             stroke-width="1"
             stroke-opacity="0"
             id="use290"
             x="0"
             y="0"
             width="100%"
             height="100%" />
        </g>
      </g>
      <g
         id="g302">
        <use
           xlink:href="#b3Cn41DtGL"
           opacity="1"
           fill="#ffffff"
           fill-opacity="1"
           id="use296"
           x="0"
           y="0"
           width="100%"
           height="100%" />
        <g
           id="g300">
          <use
             xlink:href="#b3Cn41DtGL"
             opacity="1"
             fill-opacity="0"
             stroke="#000000"
             stroke-width="1"
             stroke-opacity="0"
             id="use298"
             x="0"
             y="0"
             width="100%"
             height="100%" />
        </g>
      </g>
      <g
         id="g310">
        <use
           xlink:href="#e4GlcNBch"
           opacity="1"
           fill="#ffffff"
           fill-opacity="1"
           id="use304"
           x="0"
           y="0"
           width="100%"
           height="100%" />
        <g
           id="g308">
          <use
             xlink:href="#e4GlcNBch"
             opacity="1"
             fill-opacity="0"
             stroke="#000000"
             stroke-width="1"
             stroke-opacity="0"
             id="use306"
             x="0"
             y="0"
             width="100%"
             height="100%" />
        </g>
      </g>
      <g
         id="g318">
        <use
           xlink:href="#bBOVLh0tD"
           opacity="1"
           fill="#6c63ff"
           fill-opacity="1"
           id="use312"
           x="0"
           y="0"
           width="100%"
           height="100%" />
        <g
           id="g316">
          <use
             xlink:href="#bBOVLh0tD"
             opacity="1"
             fill-opacity="0"
             stroke="#000000"
             stroke-width="1"
             stroke-opacity="0"
             id="use314"
             x="0"
             y="0"
             width="100%"
             height="100%" />
        </g>
      </g>
      <g
         id="g326">
        <use
           xlink:href="#a3ptwinnog"
           opacity="1"
           fill="#6c63ff"
           fill-opacity="1"
           id="use320"
           x="0"
           y="0"
           width="100%"
           height="100%" />
        <g
           id="g324">
          <use
             xlink:href="#a3ptwinnog"
             opacity="1"
             fill-opacity="0"
             stroke="#000000"
             stroke-width="1"
             stroke-opacity="0"
             id="use322"
             x="0"
             y="0"
             width="100%"
             height="100%" />
        </g>
      </g>
    </g>
  </g>
</svg>
