<svg xmlns="http://www.w3.org/2000/svg" xmlns:xlink="http://www.w3.org/1999/xlink" width="1132.382" height="767.136" viewBox="0 0 1132.382 767.136"><defs><linearGradient id="a" x1="0.5" y1="1" x2="0.5" gradientUnits="objectBoundingBox"><stop offset="0" stop-color="gray" stop-opacity="0.251"/><stop offset="0.54" stop-color="gray" stop-opacity="0.122"/><stop offset="1" stop-color="gray" stop-opacity="0.102"/></linearGradient><linearGradient id="d" x1="0.5" y1="1" x2="0.5" y2="0" xlink:href="#a"/></defs><g transform="translate(-353 -106)"><path d="M646.49,178.73C576.9,178.62,509.85,157,445.7,132.94S317.91,82.05,249.58,70.54c-44-7.4-93.9-6.9-128.17,19.38C88.44,115.21,79,157.18,74.48,196c-3.39,29.18-4.91,59.83,8.17,86.57,9.09,18.57,24.59,33.89,35.56,51.6,38.17,61.6,15.52,140-21.24,202.82-17.25,29.41-37.46,57.64-50.47,88.8s-18.28,66.52-4.84,97.35C55,753.71,85,776,117.09,791.21c65.29,31,141.16,37.82,215,40.59C495.57,837.94,659.3,827,822.6,816c60.43-4.06,121.13-8.16,180.29-20.29,32.85-6.73,66.66-16.76,89.9-38.92,29.5-28.12,35.42-74.17,13.81-107.34C1070.34,593.76,975.18,583,949.08,522.82c-14.37-33.13-2.17-71,15.86-102.86,38.69-68.29,105.44-129.37,106.35-205.89.62-52.56-34.33-103.93-86.37-126.93C930.36,63,856.12,68.94,818.09,113.42,778.93,159.22,707.94,178.83,646.49,178.73Z" transform="translate(319.192 39.566)" fill="#6c63ff" opacity="0.1"/><path d="M992.65,692.43s-12.29-8.11-24.47-2.34c0,0,3.75,7.23,19.17,6.54Z" transform="translate(319.192 39.566)" fill="#6c63ff"/><path d="M994.16,692.87s3.74,14.24-5.63,23.93c0,0-5.64-5.88,0-20.26Z" transform="translate(319.192 39.566)" fill="#6c63ff"/><path d="M1009.49,679.2s-.91-12.12-28.25-8.1c0,0-.13,7.82,9.47,11.52S1004.7,683.2,1009.49,679.2Z" transform="translate(319.192 39.566)" fill="#6c63ff"/><path d="M1011.17,679.11s11.57,3.72,1.26,29.37c0,0-7.63-1.71-9-11.91S1006.16,682.83,1011.17,679.11Z" transform="translate(319.192 39.566)" fill="#6c63ff"/><path d="M1026.66,661.93s1.56-19.93-26.39-17.88c0,0-2,18,21.45,22.67Z" transform="translate(319.192 39.566)" fill="#6c63ff"/><path d="M1045.13,639.43s-3.84-22.58-31.77-15.85c0,0-.11,19.53,27.2,21.24Z" transform="translate(319.192 39.566)" fill="#6c63ff"/><path d="M1058.62,616.17s-6.41-22-34.09-15.41c0,0,6.58,19.78,32.25,19.48Z" transform="translate(319.192 39.566)" fill="#6c63ff"/><path d="M1071.44,593.46s-6.27-22.83-33-16c0,0,8.92,21.69,31.24,19.87Z" transform="translate(319.192 39.566)" fill="#6c63ff"/><path d="M1079.71,571.88S1074.89,544,1050,550.14c0,0,7.24,25.4,27.9,25.8Z" transform="translate(319.192 39.566)" fill="#6c63ff"/><path d="M1087.45,545.81s-5.78-28.15-31-20c0,0,9.89,26.59,29.22,23.84Z" transform="translate(319.192 39.566)" fill="#6c63ff"/><path d="M1092.25,521.54s-9.19-28.14-28.68-27.38c0,0,9.4,29.73,27,33Z" transform="translate(319.192 39.566)" fill="#6c63ff"/><path d="M1095.3,497.87s-10-33.88-25.86-31.27c0,0,6.92,25.9,25.3,36.54Z" transform="translate(319.192 39.566)" fill="#6c63ff"/><path d="M1097,469.59s-9.37-28.24-25-29.36c0,0,6.38,27.78,24.68,36.69Z" transform="translate(319.192 39.566)" fill="#6c63ff"/><path d="M1098.93,443.26s-11.69-28.27-22-28.9c0,0,5.07,27.82,21,33.54Z" transform="translate(319.192 39.566)" fill="#6c63ff"/><path d="M1100.22,418.74S1093,388,1082.7,385.5c0,0,1.42,25.1,16.49,35.53Z" transform="translate(319.192 39.566)" fill="#6c63ff"/><path d="M1104.11,386.65s-7.56-24.46-15.93-28.19c0,0,1.66,28.84,14,34.18Z" transform="translate(319.192 39.566)" fill="#6c63ff"/><path d="M1107.34,365.58l1.53-43.14s-15.62,32.55-2.68,50.75Z" transform="translate(319.192 39.566)" fill="#6c63ff"/><path d="M1119.43,322.71s11.26-31.51,14-33.26c0,0-22.1,20.43-19.94,46.73Z" transform="translate(319.192 39.566)" fill="#6c63ff"/><path d="M1027.42,661.79s19.82-2.6,19.22,25.42c0,0-17.91,2.91-23.75-20.25Z" transform="translate(319.192 39.566)" fill="#6c63ff"/><path d="M1046.06,638.68s22.91-.08,21,28.6c0,0-19.22,3.43-25.57-23.19Z" transform="translate(319.192 39.566)" fill="#6c63ff"/><path d="M1058.84,618s20.79-9.75,34.1,15.41c0,0-19.21,8.13-35.93-11.35Z" transform="translate(319.192 39.566)" fill="#6c63ff"/><path d="M1071.91,593.67s21.28-10.38,33.78,14.21c0,0-22.17,7.64-35.54-10.32Z" transform="translate(319.192 39.566)" fill="#6c63ff"/><path d="M1079.44,572.48s20.49-19.57,36.84.23c0,0-20.93,16.1-37.79,4.13Z" transform="translate(319.192 39.566)" fill="#6c63ff"/><path d="M1086.29,545.14s20.62-20,36.84.92c0,0-23.14,16.43-37.57,3.28Z" transform="translate(319.192 39.566)" fill="#6c63ff"/><path d="M1090.15,520.74s15.88-25,34.57-19.41c0,0-16.47,26.47-34.39,25.29Z" transform="translate(319.192 39.566)" fill="#6c63ff"/><path d="M1094.83,497.71s16-31.49,31.13-26c0,0-11.53,24.2-31.54,31.31Z" transform="translate(319.192 39.566)" fill="#6c63ff"/><path d="M1095.93,468s16.45-24.78,31.86-21.76c0,0-13.44,25.13-33.45,28.93Z" transform="translate(319.192 39.566)" fill="#6c63ff"/><path d="M1097.19,442.7s12.74-27.8,23.11-28.05c0,0-6.12,27.62-22.26,32.73Z" transform="translate(319.192 39.566)" fill="#6c63ff"/><path d="M1099.71,418.13s14.17-28.16,24.82-28.21c0,0-7.25,24.07-24.34,30.69Z" transform="translate(319.192 39.566)" fill="#6c63ff"/><path d="M1101.85,388.38s10.6-23.3,19.37-25.94c0,0-5.3,28.4-18.21,32.12Z" transform="translate(319.192 39.566)" fill="#6c63ff"/><path d="M1108.61,364.76l23.68-36.08s-6.06,35.59-27.14,43Z" transform="translate(319.192 39.566)" fill="#6c63ff"/><path d="M1124.87,325.61s27.53-19,28.52-22.08c0,0-14,26.62-40,31.32Z" transform="translate(319.192 39.566)" fill="#6c63ff"/><path d="M1126.51,317.06s31.61-30.39,39.68-30.35c0,0-26.07,1.19-40.44,28.73Z" transform="translate(319.192 39.566)" fill="#6c63ff"/><path d="M1102.15,392.89l1.15.15c5.94-46.5,14.6-74,24.39-77.38l-.38-1.09C1116.94,318.17,1108.24,345.25,1102.15,392.89Z" transform="translate(319.192 39.566)" fill="#444053"/><path d="M1093.42,504.06l1.74.15c.36-4.34.64-8.79.83-13.21,1.66-38.49,4.24-73.82,7.62-100.31l-1-1.25c-3.39,26.54-6.69,62.95-8.35,101.48C1094.06,495.32,1093.78,499.74,1093.42,504.06Z" transform="translate(319.192 39.566)" fill="#444053"/><path d="M960.19,714.57c.31-.14,30.94-13.81,62.73-46.44a252.421,252.421,0,0,0,45.85-65c14.69-29.93,23.65-66.71,26.66-102.44l-1.81.85c-6.75,80.19-43.26,135-72.3,164.84-31.48,32.34-61.76,45.88-62.06,46Z" transform="translate(319.192 39.566)" fill="#444053"/><path d="M1082.52,115.31H121.64a8.56,8.56,0,0,0-8.56,8.56v24.94h978V123.87a8.56,8.56,0,0,0-8.56-8.56Z" transform="translate(319.192 39.566)" fill="#3f3d56"/><path d="M113.08,148.81V710.05a17.26,17.26,0,0,0,17.26,17.26h943.48a17.26,17.26,0,0,0,17.26-17.26V148.81Z" transform="translate(319.192 39.566)" fill="#fff"/><circle cx="4" cy="4" r="4" transform="translate(443.772 167.366)" fill="#fa5959" opacity="0.8"/><circle cx="4" cy="4" r="4" transform="translate(454.772 167.366)" fill="#fed253" opacity="0.8"/><circle cx="4" cy="4" r="4" transform="translate(465.772 167.366)" fill="#8ccf4d" opacity="0.8"/><g transform="translate(353.002 105.996)" opacity="0.3"><rect width="904" height="510" transform="translate(116.77 116.37)" fill="none" stroke="#3f3d56" stroke-miterlimit="10" stroke-width="1"/><rect width="668" height="510" transform="translate(234.77 116.37)" fill="none" stroke="#3f3d56" stroke-miterlimit="10" stroke-width="1"/><rect width="432" height="510" transform="translate(352.77 116.37)" fill="none" stroke="#3f3d56" stroke-miterlimit="10" stroke-width="1"/><rect width="196" height="510" transform="translate(470.77 116.37)" fill="none" stroke="#3f3d56" stroke-miterlimit="10" stroke-width="1"/><line y2="510" transform="translate(568.77 116.37)" fill="none" stroke="#3f3d56" stroke-miterlimit="10" stroke-width="1"/><rect width="904" height="362" transform="translate(116.77 190.37)" fill="none" stroke="#3f3d56" stroke-miterlimit="10" stroke-width="1"/><rect width="904" height="216" transform="translate(116.77 263.37)" fill="none" stroke="#3f3d56" stroke-miterlimit="10" stroke-width="1"/><rect width="904" height="70" transform="translate(116.77 336.37)" fill="none" stroke="#3f3d56" stroke-miterlimit="10" stroke-width="1"/></g><rect width="71" height="26" transform="translate(611.272 250.866)" fill="#3f3d56" opacity="0.1"/><rect width="53" height="26" transform="translate(500.272 321.866)" fill="#3f3d56" opacity="0.1"/><rect width="71" height="26" transform="translate(726.272 250.866)" fill="#3f3d56" opacity="0.1"/><rect width="71" height="26" transform="translate(834.272 250.866)" fill="#3f3d56" opacity="0.1"/><rect width="71" height="26" transform="translate(934.272 250.866)" fill="#3f3d56" opacity="0.1"/><rect width="71" height="26" transform="translate(1046.272 250.866)" fill="#3f3d56" opacity="0.1"/><rect width="71" height="26" transform="translate(1160.272 250.866)" fill="#3f3d56" opacity="0.1"/><rect width="71" height="26" transform="translate(1281.272 250.866)" fill="#3f3d56" opacity="0.1"/><rect width="46.13" height="44.66" transform="translate(751.792 391.816)" fill="url(#a)"/><rect width="44.54" height="43.12" transform="translate(752.592 392.586)" fill="#7cfcff"/><rect width="46.13" height="44.66" transform="translate(846.832 382.136)" fill="url(#a)"/><rect width="44.54" height="43.12" transform="translate(847.632 382.906)" fill="#ffffa5"/><rect width="46.13" height="44.66" transform="translate(1029.832 534.136)" fill="url(#a)"/><rect width="44.54" height="43.12" transform="translate(1030.632 534.906)" fill="#ffffa5"/><rect width="46.13" height="44.66" transform="translate(623.572 312.226)" fill="url(#d)"/><rect width="44.54" height="43.12" transform="translate(624.362 312.996)" fill="#ffffa5"/><rect width="46.13" height="44.66" transform="translate(715.232 376.226)" fill="url(#d)"/><rect width="44.54" height="43.12" transform="translate(716.022 376.996)" fill="#ff69b4"/><rect width="46.13" height="44.66" transform="translate(1083.792 533.816)" fill="url(#a)"/><rect width="44.54" height="43.12" transform="translate(1084.592 534.586)" fill="#7cfcff"/><rect width="46.13" height="44.66" transform="translate(1164.792 312.816)" fill="url(#a)"/><rect width="44.54" height="43.12" transform="translate(1165.592 313.586)" fill="#7cfcff"/><rect width="46.13" height="44.66" transform="translate(1159.792 454.816)" fill="url(#a)"/><rect width="44.54" height="43.12" transform="translate(1160.592 455.586)" fill="#7cfcff"/><rect width="46.13" height="44.66" transform="translate(1194.792 464.816)" fill="url(#a)"/><rect width="44.54" height="43.12" transform="translate(1195.592 465.586)" fill="#7cfcff"/><rect width="46.13" height="44.66" transform="translate(1047.232 518.226)" fill="url(#d)"/><rect width="44.54" height="43.12" transform="translate(1048.022 518.996)" fill="#ff69b4"/><rect width="46.13" height="44.66" transform="translate(1052.232 383.226)" fill="url(#d)"/><rect width="44.54" height="43.12" transform="translate(1053.022 383.996)" fill="#ff69b4"/><rect width="53" height="26" transform="translate(500.272 464.866)" fill="#3f3d56" opacity="0.1"/><rect width="53" height="26" transform="translate(500.272 537.866)" fill="#3f3d56" opacity="0.1"/><rect width="53" height="26" transform="translate(500.272 610.866)" fill="#3f3d56" opacity="0.1"/><rect width="53" height="26" transform="translate(500.272 683.866)" fill="#3f3d56" opacity="0.1"/><rect width="46.13" height="44.66" transform="translate(607.792 454.816)" fill="url(#a)"/><rect width="44.54" height="43.12" transform="translate(608.592 455.586)" fill="#7cfcff"/></g></svg>