<svg xmlns="http://www.w3.org/2000/svg" width="996.611" height="804" viewBox="0 0 996.611 804"><g transform="translate(0 0)"><path d="M568.917,56.979c-50.937,13.232-95.866,48.56-140.524,94.905a76.2,76.2,0,0,1-99.835,115.087C276.1,329.636,218.824,395.883,148.917,450.635c-177.995,139.408,188.04,393.655,420,393.655s420-176.245,420-393.655S792.449-1.09,568.917,56.979Z" transform="translate(-101.694 -48)" fill="#f2f2f2"/><ellipse cx="464" cy="30.5" rx="464" ry="30.5" transform="translate(68.611 743)" fill="#3f3d56"/><ellipse cx="160" cy="17" rx="160" ry="17" transform="translate(385.611 754)" opacity="0.1"/><path d="M1039.05,787.506c0,29.271-17.4,39.491-38.865,39.491-.5,0-.994-.007-1.488-.018-.994-.021-1.982-.068-2.955-.136-19.374-1.37-34.422-12.116-34.422-39.337,0-28.166,35.993-63.712,38.7-66.348l0,0c.1-.1.157-.154.157-.154S1039.05,758.238,1039.05,787.506Z" transform="translate(-101.694 -48)" fill="#6c63ff"/><path d="M998.764,822.518l14.215-19.86L998.728,824.7l-.036,2.279c-.994-.021-1.982-.068-2.955-.136l1.531-29.282-.011-.229.025-.039.147-2.769-14.287-22.1,14.33,20.021.036.587,1.155-22.124-12.23-22.832,12.38,18.951,1.206-45.873v0l-.2,36.172L1012,742.985,999.77,760.441l-.322,19.81,11.372-19.012L999.4,783.167l-.179,11.014,16.508-26.464-16.566,30.305Z" transform="translate(-101.694 -48)" fill="#3f3d56"/><rect width="441.479" height="257.824" transform="translate(205.048 369.986) rotate(-9.547)" fill="#3f3d56"/><path d="M785.613,473.581l-289.133,48.1a5.947,5.947,0,1,1-1.952-11.733l289.133-48.1a5.947,5.947,0,0,1,1.952,11.733Z" transform="translate(-206.694 -93)" fill="#6c63ff" opacity="0.3"/><circle cx="24.638" cy="24.638" r="24.638" transform="translate(474.527 363.182)" fill="#6c63ff"/><path d="M796.348,538.112l-289.133,48.1a5.947,5.947,0,1,1-1.952-11.733l289.133-48.1a5.947,5.947,0,0,1,1.952,11.733Z" transform="translate(-206.694 -93)" fill="#6c63ff" opacity="0.3"/><circle cx="24.638" cy="24.638" r="24.638" transform="translate(354.523 449.461)" fill="#6c63ff"/><path d="M807.083,602.643,517.95,650.74A5.947,5.947,0,1,1,516,639.007l289.133-48.1a5.947,5.947,0,0,1,1.952,11.733Z" transform="translate(-206.694 -93)" fill="#6c63ff" opacity="0.3"/><circle cx="24.638" cy="24.638" r="24.638" transform="translate(454.931 499.075)" fill="#6c63ff"/><circle cx="54.315" cy="54.315" r="54.315" transform="translate(221.055 105.886)" fill="#ff6584"/></g></svg>